<?xml version="1.0" standalone="no"?>
<!DOCTYPE svg PUBLIC "-//W3C//DTD SVG 20010904//EN"
 "http://www.w3.org/TR/2001/REC-SVG-20010904/DTD/svg10.dtd">
<svg version="1.0" xmlns="http://www.w3.org/2000/svg"
 width="407.000000pt" height="397.000000pt" viewBox="0 0 407.000000 397.000000"
 preserveAspectRatio="xMidYMid meet">

<g transform="translate(0.000000,397.000000) scale(0.100000,-0.100000)"
fill="#000000" stroke="none">
<path d="M1822 3573 c-10 -4 -7 -12 10 -31 21 -23 21 -25 3 -18 -17 6 -16 4 5
-19 21 -23 22 -25 5 -19 -18 7 -19 6 -6 -9 8 -10 11 -20 7 -24 -3 -3 0 -16 9
-29 13 -20 13 -21 -5 -17 -11 3 -20 12 -20 20 0 8 -4 11 -10 8 -5 -3 -13 7
-16 22 -7 24 -8 25 -15 8 -7 -20 -7 -20 -14 0 -15 43 -28 64 -44 68 -9 3 -25
8 -36 12 -17 6 -17 4 4 -14 21 -19 21 -21 5 -22 -13 0 -10 -4 10 -11 21 -8 25
-13 15 -19 -11 -7 -11 -9 -1 -9 7 0 11 -4 8 -9 -3 -5 1 -11 9 -15 8 -3 15 -14
15 -25 0 -10 7 -21 15 -25 8 -3 12 -12 9 -20 -3 -8 3 -19 15 -26 18 -9 19 -14
10 -32 -6 -11 -7 -18 -1 -14 5 3 12 -6 15 -19 4 -23 3 -24 -12 -11 -9 8 -18
15 -21 15 -3 0 -23 8 -45 17 -22 9 -49 17 -59 16 -11 -1 -28 4 -39 9 -14 8
-18 8 -12 -1 5 -9 -5 -10 -41 -5 -35 5 -45 4 -34 -4 12 -8 9 -12 -17 -17 -18
-4 -31 -10 -28 -14 3 -4 -6 -11 -20 -14 -23 -6 -24 -7 -7 -24 16 -17 18 -17
35 3 16 17 18 17 13 2 -5 -16 -4 -16 19 -1 19 12 25 13 25 3 0 -10 3 -10 11
-2 6 6 17 9 24 6 7 -2 27 3 44 11 16 9 36 16 43 16 7 -1 -1 -7 -18 -14 -18 -8
-35 -19 -38 -25 -4 -6 12 -2 36 9 42 19 69 18 35 -2 -25 -13 -4 -38 32 -38 21
0 23 -2 11 -11 -12 -8 -9 -9 13 -5 l28 7 -21 -21 c-15 -15 -34 -20 -77 -21
-42 0 -52 -3 -38 -9 15 -6 9 -9 -27 -9 -25 -1 -59 -7 -75 -15 -101 -50 -120
-60 -133 -73 -13 -12 -13 -13 5 -7 13 4 9 -1 -9 -14 -16 -11 -39 -33 -51 -48
-20 -25 -20 -29 -6 -44 15 -15 17 -15 34 3 9 11 17 27 18 36 0 13 2 13 6 2 4
-10 12 -3 24 20 10 19 18 28 19 20 0 -11 4 -9 14 5 8 10 18 16 22 11 4 -4 16
0 26 10 10 9 18 12 18 8 0 -5 17 7 37 26 21 18 30 25 20 13 -30 -36 -19 -50
16 -18 35 33 76 62 47 34 -37 -37 -40 -46 -15 -48 13 -1 27 3 31 9 4 8 9 7 14
-2 5 -7 -2 -28 -16 -51 -13 -21 -22 -38 -19 -38 2 0 -7 -16 -20 -36 -22 -33
-36 -78 -18 -60 4 3 13 -4 20 -16 12 -23 12 -23 13 7 0 21 3 26 9 17 6 -10 10
-7 15 12 4 15 11 24 16 21 5 -3 15 13 22 37 11 38 13 40 18 17 6 -21 7 -19 14
15 6 30 10 36 17 25 8 -12 12 -11 23 4 10 13 19 16 29 10 12 -7 9 -23 -18
-105 -18 -53 -43 -148 -55 -210 -12 -62 -27 -117 -32 -123 -8 -7 -8 -6 -3 4 6
11 4 13 -9 8 -9 -4 -15 -3 -12 2 6 8 -16 14 -106 27 -52 8 -51 35 3 67 26 16
36 27 27 30 -7 3 4 5 25 3 30 -3 35 -1 26 10 -19 23 -63 16 -107 -15 -22 -16
-43 -34 -47 -40 -3 -6 -11 -11 -17 -11 -7 0 -7 4 -1 13 5 6 9 35 9 64 -1 28 2
49 6 47 4 -2 10 1 13 7 5 7 -1 9 -16 7 -17 -2 -26 -13 -33 -38 -5 -19 -10 -36
-11 -38 -5 -6 -35 11 -35 20 0 11 -21 31 -55 50 -19 10 -19 10 -5 -8 8 -10 23
-28 33 -39 18 -19 18 -20 -2 -23 -11 -2 -31 4 -44 13 -17 11 -27 13 -32 6 -3
-6 -1 -11 5 -11 6 0 16 -5 23 -10 46 -39 61 -50 69 -50 4 0 8 -7 8 -15 0 -10
-10 -15 -27 -15 -45 0 -90 -22 -107 -52 -10 -15 -13 -28 -7 -28 5 0 11 3 13 8
2 4 18 18 37 31 19 13 30 17 26 10 -5 -8 2 -5 14 6 16 13 21 15 19 5 -2 -8 3
-15 10 -16 6 -1 14 -2 17 -3 2 0 -22 -28 -54 -60 -46 -47 -60 -68 -66 -101
-10 -57 0 -60 25 -9 11 25 35 54 55 67 42 27 47 27 44 5 -3 -39 2 -73 11 -73
6 0 12 6 14 13 19 68 31 97 38 97 4 0 8 -1 8 -3 0 -58 59 -254 102 -341 16
-32 28 -59 26 -61 -2 -1 -37 -10 -78 -19 -41 -9 -99 -28 -129 -41 -71 -34
-174 -108 -201 -145 l-21 -29 49 33 c142 95 390 114 666 50 307 -71 462 -94
623 -94 216 1 366 63 430 177 l23 40 -50 -13 c-127 -33 -352 -26 -725 21 -104
14 -247 28 -316 31 l-126 7 -7 121 c-10 194 17 418 73 615 33 112 33 112 53
115 7 1 18 5 24 9 7 4 15 -1 18 -10 6 -14 9 -15 15 -4 7 11 12 10 27 -7 10
-12 21 -19 26 -16 4 3 13 -6 19 -19 8 -17 17 -23 30 -20 11 3 19 0 19 -6 0 -7
4 -10 9 -7 5 3 11 -4 14 -15 3 -12 10 -18 16 -14 6 3 11 -2 11 -12 0 -14 2
-15 9 -4 7 11 10 9 16 -8 3 -12 10 -19 15 -16 5 3 11 -4 15 -15 4 -11 11 -18
16 -15 5 4 9 -4 9 -17 0 -17 3 -19 9 -9 6 10 11 6 19 -15 6 -16 11 -23 11 -16
1 7 6 10 12 6 8 -4 9 1 4 16 -6 20 -5 21 17 10 l23 -13 -24 27 c-17 18 -20 26
-10 26 10 1 9 4 -4 14 -13 10 -15 15 -5 19 7 3 -2 10 -20 17 -24 9 -30 15 -21
21 10 6 4 12 -21 23 -26 11 -30 16 -15 16 14 1 10 5 -13 14 -18 6 -30 15 -26
19 4 3 -1 9 -10 13 -9 3 -14 10 -11 14 3 5 -4 11 -15 15 -11 4 -18 10 -15 15
3 5 -19 21 -50 34 -30 14 -55 31 -55 37 0 6 7 8 16 5 15 -6 15 -4 3 10 -12 15
-11 16 9 10 16 -6 22 -3 22 8 0 19 13 20 41 6 15 -8 19 -8 17 2 -2 8 5 12 16
10 12 -2 16 1 10 9 -5 9 -1 11 14 7 12 -4 22 -2 22 3 0 5 15 2 33 -7 l32 -17
-24 27 c-33 36 -6 34 32 -1 l30 -28 -13 25 c-12 24 -11 23 19 -5 25 -24 31
-26 25 -10 -4 11 -11 25 -15 31 -5 6 -6 14 -2 17 3 4 -11 7 -33 7 -30 0 -36 3
-24 11 11 8 4 9 -28 6 -27 -3 -40 -1 -36 5 4 7 -2 7 -17 2 -13 -4 -35 -8 -49
-10 -36 -4 -51 -8 -87 -23 -21 -9 -37 -10 -49 -3 -16 9 -15 11 4 21 12 7 22
19 22 27 0 8 4 13 9 10 5 -4 7 3 4 13 -3 13 2 21 16 26 26 8 27 22 4 28 -15 4
-15 5 2 6 16 1 17 3 6 10 -11 7 -6 12 20 19 26 8 29 10 11 11 -14 1 -21 5 -16
12 3 6 17 9 30 6 13 -2 21 0 18 4 -3 5 -12 9 -20 9 -8 0 -12 5 -9 10 4 7 12 7
25 0 29 -16 32 -12 13 13 -10 15 -24 22 -35 19 -20 -5 -85 -76 -101 -109 -20
-45 -29 -29 -42 70 -6 48 -28 101 -37 91 -3 -3 -8 7 -12 21 -6 25 -11 28 -34
18z m44 -235 c2 -37 2 -39 -5 -13 -11 38 -13 70 -5 62 4 -3 8 -26 10 -49z
m-151 -36 c-3 -3 -11 0 -18 7 -9 10 -8 11 6 5 10 -3 15 -9 12 -12z m352 -228
c-3 -3 -12 -4 -19 -1 -8 3 -5 6 6 6 11 1 17 -2 13 -5z m-407 -487 c58 -12 63
-17 56 -64 -3 -25 -6 -115 -6 -200 0 -154 0 -154 -22 -151 -38 5 -122 183
-155 329 -21 93 -17 99 54 93 32 -2 65 -6 73 -7z"/>
<path d="M3281 1584 c0 -11 3 -14 6 -6 3 7 2 16 -1 19 -3 4 -6 -2 -5 -13z"/>
<path d="M2552 1470 c0 -14 2 -19 5 -12 2 6 2 18 0 25 -3 6 -5 1 -5 -13z"/>
<path d="M2342 1435 c0 -16 2 -22 5 -12 2 9 2 23 0 30 -3 6 -5 -1 -5 -18z"/>
<path d="M2001 1404 c0 -11 3 -14 6 -6 3 7 2 16 -1 19 -3 4 -6 -2 -5 -13z"/>
<path d="M1662 1345 c0 -16 2 -22 5 -12 2 9 2 23 0 30 -3 6 -5 -1 -5 -18z"/>
<path d="M2701 934 c0 -11 3 -14 6 -6 3 7 2 16 -1 19 -3 4 -6 -2 -5 -13z"/>
<path d="M2412 890 c0 -19 2 -27 5 -17 2 9 2 25 0 35 -3 9 -5 1 -5 -18z"/>
<path d="M2071 814 c0 -11 3 -14 6 -6 3 7 2 16 -1 19 -3 4 -6 -2 -5 -13z"/>
</g>
</svg>
