<svg xmlns="http://www.w3.org/2000/svg" width="14.685" height="18.528" viewBox="0 0 14.685 18.528">
  <g id="notification" transform="translate(-53.013)">
    <path id="Path_10478" data-name="Path 10478" d="M184.9,465.044a2.8,2.8,0,0,0,5.123,0Z" transform="translate(-127.11 -448.188)" fill="#6c757d"/>
    <path id="Path_10479" data-name="Path 10479" d="M198.426,1.77a6.3,6.3,0,0,1,2.15.377V2.064A2.066,2.066,0,0,0,198.512,0h-.171a2.066,2.066,0,0,0-2.064,2.064v.082A6.308,6.308,0,0,1,198.426,1.77Z" transform="translate(-138.071)" fill="#6c757d"/>
    <path id="Path_10480" data-name="Path 10480" d="M67.14,91.747H53.572a.553.553,0,0,1-.545-.424.527.527,0,0,1,.29-.6,2.879,2.879,0,0,0,.876-1.191,13.763,13.763,0,0,0,.913-5.447,5.249,5.249,0,0,1,10.5-.021q0,.01,0,.021a13.763,13.763,0,0,0,.913,5.447,2.878,2.878,0,0,0,.876,1.191.527.527,0,0,1,.29.6A.553.553,0,0,1,67.14,91.747Zm.261-1.021h0Z" transform="translate(0 -75.978)" fill="#6c757d"/>
  </g>
</svg>
