<svg xmlns="http://www.w3.org/2000/svg" width="78.001" height="72.078" viewBox="0 0 78.001 72.078">
  <g id="telephone-call" transform="translate(0 -19.438)">
    <path id="Path_9" data-name="Path 9" d="M151.364,88.86,121.192,91.5a4.317,4.317,0,0,1-4.676-3.924L111.2,26.771a4.317,4.317,0,0,1,3.924-4.676l30.172-2.64a4.317,4.317,0,0,1,4.676,3.924l5.32,60.805A4.316,4.316,0,0,1,151.364,88.86Z" transform="translate(-94.242 0)" fill="#b8dbff"/>
    <path id="Path_10" data-name="Path 10" d="M139.577,106.834a.961.961,0,0,1-1.04-.873l-5.32-60.805a.961.961,0,0,1,.873-1.04l30.172-2.64a.961.961,0,0,1,1.04.873l5.32,60.805a.961.961,0,0,1-.873,1.04Z" transform="translate(-112.919 -18.677)" opacity="0.05"/>
    <g id="Group_56" data-name="Group 56" transform="translate(17.441 24.91)">
      <rect id="Rectangle_8334" data-name="Rectangle 8334" width="38.92" height="49.879" transform="translate(43.122 53.714) rotate(174.998)" fill="#5b6ea2"/>
      <path id="Path_11" data-name="Path 11" d="M205.661,58.367a1.143,1.143,0,0,1-.1-2.281l8.315-.727a1.143,1.143,0,1,1,.2,2.277l-8.315.727C205.729,58.366,205.695,58.367,205.661,58.367Z" transform="translate(-190.804 -55.354)" fill="#5b6ea2"/>
    </g>
    <path id="Path_12" data-name="Path 12" d="M177.089,148.856l1.992-2.374a1.524,1.524,0,0,0-.188-2.147l-4.144-3.477a1.524,1.524,0,0,0-2.147.188l-2.833,3.376a6.9,6.9,0,0,0-.3,8.494h0a37.931,37.931,0,0,0,14.058,11.8h0a6.9,6.9,0,0,0,8.314-1.767l2.833-3.376a1.524,1.524,0,0,0-.188-2.147l-4.144-3.477a1.524,1.524,0,0,0-2.147.188l-1.992,2.374a2.462,2.462,0,0,1-2.841.687h0a14.277,14.277,0,0,1-6.458-5.419h0A2.462,2.462,0,0,1,177.089,148.856Z" transform="translate(-142.537 -102.619)" fill="#fde27c"/>
    <g id="Group_57" data-name="Group 57" transform="translate(0 35.268)">
      <path id="Path_13" data-name="Path 13" d="M43.11,209.182a1.137,1.137,0,0,1-.734-.267,18.937,18.937,0,0,1-2.334-26.678,1.143,1.143,0,1,1,1.75,1.469,16.652,16.652,0,0,0,2.052,23.459,1.143,1.143,0,0,1-.735,2.018Z" transform="translate(-30.185 -172.918)" fill="#b8dbff"/>
      <path id="Path_14" data-name="Path 14" d="M9.438,193.936a1.137,1.137,0,0,1-.734-.267,24.361,24.361,0,0,1-3-34.321,1.143,1.143,0,0,1,1.75,1.469,22.076,22.076,0,0,0,2.721,31.1,1.143,1.143,0,0,1-.735,2.018Z" transform="translate(0 -153.517)" fill="#b8dbff"/>
      <path id="Path_15" data-name="Path 15" d="M76.821,224.427a1.137,1.137,0,0,1-.734-.267,13.527,13.527,0,0,1-1.666-19.036,1.143,1.143,0,1,1,1.75,1.469,11.24,11.24,0,0,0,1.384,15.817,1.143,1.143,0,0,1-.735,2.018Z" transform="translate(-60.409 -192.319)" fill="#b8dbff"/>
      <path id="Path_16" data-name="Path 16" d="M422.993,177.974a1.143,1.143,0,0,1-.875-1.877,16.651,16.651,0,0,0-2.053-23.459,1.143,1.143,0,0,1,1.469-1.75,18.937,18.937,0,0,1,2.334,26.678A1.14,1.14,0,0,1,422.993,177.974Z" transform="translate(-355.725 -146.465)" fill="#b8dbff"/>
      <path id="Path_17" data-name="Path 17" d="M446.55,158.341a1.143,1.143,0,0,1-.875-1.877,22.1,22.1,0,0,0-2.721-31.1,1.143,1.143,0,1,1,1.469-1.75,24.361,24.361,0,0,1,3,34.321A1.141,1.141,0,0,1,446.55,158.341Z" transform="translate(-375.126 -123.344)" fill="#b8dbff"/>
      <path id="Path_18" data-name="Path 18" d="M399.435,197.608a1.143,1.143,0,0,1-.875-1.877,11.227,11.227,0,0,0-1.384-15.817,1.143,1.143,0,0,1,1.469-1.75,13.528,13.528,0,0,1,1.665,19.036A1.14,1.14,0,0,1,399.435,197.608Z" transform="translate(-336.323 -169.586)" fill="#b8dbff"/>
    </g>
    <circle id="Ellipse_4" data-name="Ellipse 4" cx="3.752" cy="3.752" r="3.752" transform="translate(28.111 68.905)" fill="#ec7887"/>
    <circle id="Ellipse_5" data-name="Ellipse 5" cx="3.752" cy="3.752" r="3.752" transform="translate(45.26 67.404)" fill="#86dbd5"/>
    <path id="Path_19" data-name="Path 19" d="M121.192,102.339l28.223-2.469c-19.582-8.89-24.882-44.005-26.195-67.645l-8.1.709A4.316,4.316,0,0,0,111.2,37.61l5.32,60.805A4.317,4.317,0,0,0,121.192,102.339Z" transform="translate(-94.242 -10.839)" opacity="0.15"/>
  </g>
</svg>
