<svg id="communications_1_" data-name="communications (1)" xmlns="http://www.w3.org/2000/svg" width="16.858" height="16.858" viewBox="0 0 16.858 16.858">
  <g id="Group_7641" data-name="Group 7641" transform="translate(8.429 4.495)">
    <g id="Group_7640" data-name="Group 7640">
      <path id="Path_10514" data-name="Path 10514" d="M240.562,128a.562.562,0,1,0,0,1.124,2.25,2.25,0,0,1,2.248,2.248.562.562,0,0,0,1.124,0A3.376,3.376,0,0,0,240.562,128Z" transform="translate(-240 -128)" fill="#6c757d"/>
    </g>
  </g>
  <g id="Group_7643" data-name="Group 7643" transform="translate(8.429 2.248)">
    <g id="Group_7642" data-name="Group 7642">
      <path id="Path_10515" data-name="Path 10515" d="M240.562,64a.562.562,0,1,0,0,1.124,4.5,4.5,0,0,1,4.5,4.5.562.562,0,0,0,1.124,0A5.626,5.626,0,0,0,240.562,64Z" transform="translate(-240 -64)" fill="#6c757d"/>
    </g>
  </g>
  <g id="Group_7645" data-name="Group 7645" transform="translate(8.429)">
    <g id="Group_7644" data-name="Group 7644">
      <path id="Path_10516" data-name="Path 10516" d="M240.562,0a.562.562,0,1,0,0,1.124,6.75,6.75,0,0,1,6.743,6.743.562.562,0,0,0,1.124,0A7.876,7.876,0,0,0,240.562,0Z" transform="translate(-240)" fill="#6c757d"/>
    </g>
  </g>
  <g id="Group_7647" data-name="Group 7647" transform="translate(0 1.124)">
    <g id="Group_7646" data-name="Group 7646">
      <path id="Path_10517" data-name="Path 10517" d="M15.172,43.239a10.431,10.431,0,0,1-4.619-1.055.552.552,0,0,0-.43-.026.567.567,0,0,0-.323.287l-.883,1.829A14.134,14.134,0,0,1,3.464,38.82l1.827-.886a.561.561,0,0,0,.26-.753A10.431,10.431,0,0,1,4.5,32.562.562.562,0,0,0,3.934,32H.562A.562.562,0,0,0,0,32.562,15.189,15.189,0,0,0,15.172,47.734a.562.562,0,0,0,.562-.562V43.8A.562.562,0,0,0,15.172,43.239Z" transform="translate(0 -32)" fill="#6c757d"/>
    </g>
  </g>
</svg>
