<svg id="communications" xmlns="http://www.w3.org/2000/svg" width="16.655" height="16.655" viewBox="0 0 16.655 16.655">
  <path id="Path_10511" data-name="Path 10511" d="M66.6,0a6.376,6.376,0,0,0-6.368,6.368v5.878a1.47,1.47,0,1,0,2.939,0v-4.9a1.471,1.471,0,0,0-1.47-1.47,1.453,1.453,0,0,0-.469.084,5.383,5.383,0,0,1,10.736,0,1.443,1.443,0,0,0-.469-.08,1.471,1.471,0,0,0-1.47,1.47v4.9a1.471,1.471,0,0,0,1.47,1.47,1.453,1.453,0,0,0,.49-.09v.58a.491.491,0,0,1-.49.49H67.982a1.47,1.47,0,1,0,0,.98H71.5a1.471,1.471,0,0,0,1.47-1.47V6.368A6.376,6.376,0,0,0,66.6,0Zm0,0" transform="translate(-58.275)" fill="#6c757d"/>
  <path id="Path_10512" data-name="Path 10512" d="M481.883,213.6v5.7a1.467,1.467,0,0,0,.98-1.379v-2.939A1.467,1.467,0,0,0,481.883,213.6Zm0,0" transform="translate(-466.207 -206.65)" fill="#6c757d"/>
  <path id="Path_10513" data-name="Path 10513" d="M0,214.977v2.939A1.467,1.467,0,0,0,.98,219.3v-5.7A1.467,1.467,0,0,0,0,214.977Zm0,0" transform="translate(0 -206.65)" fill="#6c757d"/>
</svg>
