<svg xmlns="http://www.w3.org/2000/svg" width="50" height="50" viewBox="0 0 50 50">
  <g id="Group_4" data-name="Group 4" transform="translate(-1485 -1628)">
    <circle id="Ellipse_3" data-name="Ellipse 3" cx="25" cy="25" r="25" transform="translate(1485 1628)" fill="#f10000"/>
    <path id="Path_1" data-name="Path 1" d="M18.309,14.847l-2.07-1.38L14.4,12.24a.815.815,0,0,0-1.095.178l-1.139,1.464a.811.811,0,0,1-1.035.215,13.257,13.257,0,0,1-3.7-2.853,13.352,13.352,0,0,1-2.853-3.7A.811.811,0,0,1,4.79,6.506L6.254,5.368a.815.815,0,0,0,.178-1.095L5.243,2.49,3.825.363a.815.815,0,0,0-1.1-.247L1.093,1.1A2,2,0,0,0,.186,2.271C-.262,3.9-.352,7.5,5.412,13.261s9.359,5.673,10.99,5.226a2,2,0,0,0,1.174-.907l.981-1.635A.815.815,0,0,0,18.309,14.847Z" transform="translate(1523.057 1652.853) rotate(135)" fill="#fff"/>
  </g>
</svg>
