<svg xmlns="http://www.w3.org/2000/svg" xmlns:xlink="http://www.w3.org/1999/xlink" width="100" height="100" viewBox="0 0 100 100">
  <defs>
    <clipPath id="clip-digital-signatures">
      <rect width="100" height="100"/>
    </clipPath>
  </defs>
  <g id="digital-signatures" clip-path="url(#clip-digital-signatures)">
    <g id="Group_7557" data-name="Group 7557" transform="translate(1208 461)">
      <path id="Path_10460" data-name="Path 10460" d="M100,50.054c0,.045,0,.09,0,.135v.053c0,.256,0,.512-.009.765,0,.094,0,.188-.006.282-.01.336-.02.67-.035,1-.011.25-.024.5-.039.746,0,.018,0,.033,0,.05a49.492,49.492,0,0,1-.665,5.641A49.975,49.975,0,0,1,61.518,98.668q-1.418.333-2.867.587a49.477,49.477,0,0,1-6.062.677c-.1.006-.2.012-.293.016-.024,0-.047,0-.07,0l-.2.008c-.69.03-1.385.041-2.082.041q-.4,0-.8-.006-1.35-.023-2.686-.119c-.072,0-.143-.01-.215-.015-.024,0-.045,0-.068,0s-.055,0-.082-.008c-.064-.005-.129-.009-.193-.015q-1.6-.126-3.172-.359-.6-.085-1.193-.188-.659-.111-1.308-.24c-.045-.01-.092-.018-.137-.027a49.555,49.555,0,0,1-7.348-2.076q-1.031-.381-2.041-.8a50.007,50.007,0,1,1,67.7-58.707c.066.259.133.52.2.781.137.565.263,1.131.381,1.7.076.377.15.756.217,1.137.024.114.043.227.063.34q.334,1.91.517,3.867c.02.211.039.422.055.635.053.633.094,1.272.119,1.91,0,.024,0,.045,0,.069q.021.468.03.943c.011.412.015.824.015,1.238Zm0,0" transform="translate(-1208 -461.001)" fill="#dbdbdb"/>
      <g id="Group_7556" data-name="Group 7556" transform="translate(-1142.731 -446.477) rotate(45)">
        <g id="Group_7541" data-name="Group 7541" transform="translate(3.262)">
          <path id="Path_10444" data-name="Path 10444" d="M0,0H19.572V11.417H0Z" transform="translate(1.631 1.631)" fill="#fff"/>
          <path id="Path_10445" data-name="Path 10445" d="M21.2,14.679H1.631A1.631,1.631,0,0,1,0,13.048V1.631A1.631,1.631,0,0,1,1.631,0H21.2a1.631,1.631,0,0,1,1.631,1.631V13.048A1.631,1.631,0,0,1,21.2,14.679ZM3.262,11.417h16.31V3.262H3.262Z" fill="#495057"/>
        </g>
        <path id="Path_10446" data-name="Path 10446" d="M1.631,6.524A1.631,1.631,0,0,1,0,4.893V1.631a1.631,1.631,0,1,1,3.262,0V4.893A1.631,1.631,0,0,1,1.631,6.524Z" transform="translate(17.941 7.047)" fill="#495057"/>
        <path id="Path_10447" data-name="Path 10447" d="M1.631,6.524A1.631,1.631,0,0,1,0,4.893V1.631a1.631,1.631,0,0,1,3.262,0V4.893A1.631,1.631,0,0,1,1.631,6.524Z" transform="translate(13.048 7.047)" fill="#495057"/>
        <path id="Path_10448" data-name="Path 10448" d="M1.631,6.524A1.631,1.631,0,0,1,0,4.893V1.631a1.631,1.631,0,0,1,3.262,0V4.893A1.631,1.631,0,0,1,1.631,6.524Z" transform="translate(8.155 7.047)" fill="#495057"/>
        <g id="Group_7542" data-name="Group 7542" transform="translate(0 11.417)">
          <path id="Path_10449" data-name="Path 10449" d="M13.048,57.086A13.048,13.048,0,0,1,0,44.038V0H26.1V44.038A13.048,13.048,0,0,1,13.048,57.086Z" transform="translate(1.631 1.631)" fill="#757575"/>
          <path id="Path_10450" data-name="Path 10450" d="M14.679,60.348A14.7,14.7,0,0,1,0,45.669V1.631A1.631,1.631,0,0,1,1.631,0h26.1a1.631,1.631,0,0,1,1.631,1.631V45.669A14.7,14.7,0,0,1,14.679,60.348ZM3.262,3.262V45.669a11.417,11.417,0,0,0,22.834,0V3.262Z" fill="#495057"/>
        </g>
        <path id="Path_10451" data-name="Path 10451" d="M4.893,9.786A4.893,4.893,0,1,1,9.786,4.893,4.9,4.9,0,0,1,4.893,9.786Zm0-6.524A1.631,1.631,0,1,0,6.524,4.893,1.633,1.633,0,0,0,4.893,3.262Z" transform="translate(9.786 55.455)" fill="#495057"/>
      </g>
    </g>
  </g>
</svg>
