<svg xmlns="http://www.w3.org/2000/svg" width="29.994" height="37.805" viewBox="0 0 29.994 37.805">
  <g id="Group_7537" data-name="Group 7537" transform="translate(-50.966 -185.295)">
    <g id="Group_7267" data-name="Group 7267" transform="translate(51.066 185.395)">
      <path id="Path_9230" data-name="Path 9230" d="M20.765.291A.91.91,0,0,0,20.111,0H5.441A4.962,4.962,0,0,0,.5,4.932V32.673a4.962,4.962,0,0,0,4.941,4.932H25.352a4.962,4.962,0,0,0,4.941-4.932V10.646a.978.978,0,0,0-.263-.636Zm.263,2.916,6.2,6.513H23.2a2.163,2.163,0,0,1-2.171-2.162Zm4.324,32.582H5.441a3.146,3.146,0,0,1-3.125-3.116V4.932A3.146,3.146,0,0,1,5.441,1.817h13.77V7.557A3.974,3.974,0,0,0,23.2,11.536h5.277V32.673A3.14,3.14,0,0,1,25.352,35.789Zm0,0" transform="translate(-0.5 0)" fill="#0b62ab" stroke="#0b62ab" stroke-width="0.2"/>
    </g>
    <g id="close" transform="translate(58.23 199.299)">
      <g id="Group_7268" data-name="Group 7268" transform="translate(0 0)">
        <path id="Path_9233" data-name="Path 9233" d="M9.111,7.482,14.694,1.9a.818.818,0,0,0,0-1.155L14.2.254a.819.819,0,0,0-1.155,0L7.467,5.837,1.883.254a.818.818,0,0,0-1.155,0L.239.744a.817.817,0,0,0,0,1.155L5.822,7.482.239,13.065a.819.819,0,0,0,0,1.155l.489.489a.818.818,0,0,0,1.155,0L7.466,9.126l5.583,5.583a.81.81,0,0,0,.577.238h0a.81.81,0,0,0,.578-.238l.489-.489a.819.819,0,0,0,0-1.155Z" transform="translate(0 -0.016)" fill="#0b62ab"/>
      </g>
    </g>
  </g>
</svg>
