<svg xmlns="http://www.w3.org/2000/svg" width="29.994" height="37.805" viewBox="0 0 29.994 37.805">
  <g id="Group_7539" data-name="Group 7539" transform="translate(-1017.9 -754.295)">
    <path id="Path_10437" data-name="Path 10437" d="M20.765.291A.91.91,0,0,0,20.111,0H5.441A4.962,4.962,0,0,0,.5,4.932V32.673a4.962,4.962,0,0,0,4.941,4.932H25.352a4.962,4.962,0,0,0,4.941-4.932V10.646a.978.978,0,0,0-.263-.636Zm.263,2.916,6.2,6.513H23.2a2.163,2.163,0,0,1-2.171-2.162Zm4.324,32.582H5.441a3.146,3.146,0,0,1-3.125-3.116V4.932A3.146,3.146,0,0,1,5.441,1.817h13.77V7.557A3.974,3.974,0,0,0,23.2,11.536h5.277V32.673A3.14,3.14,0,0,1,25.352,35.789Zm0,0" transform="translate(1017.5 754.395)" fill="#0b62ab" stroke="#0b62ab" stroke-width="0.2"/>
    <path id="Path_10438" data-name="Path 10438" d="M5.557,13.752a.9.9,0,0,0,1.326,0l5.323-5.713A.906.906,0,0,0,10.88,6.8L7.129,10.827V.908a.908.908,0,0,0-1.817,0v9.919L1.57,6.8A.906.906,0,0,0,.244,8.039Zm0,0" transform="translate(1027.724 778.305) rotate(-90)" fill="#0b62ab" stroke="#0b62ab" stroke-width="0.2"/>
    <path id="Path_10439" data-name="Path 10439" d="M5.557,13.752a.9.9,0,0,0,1.326,0l5.323-5.713A.906.906,0,0,0,10.88,6.8L7.129,10.827V.908a.908.908,0,0,0-1.817,0v9.919L1.57,6.8A.906.906,0,0,0,.244,8.039Zm0,0" transform="translate(1038.078 775.075) rotate(90)" fill="#0b62ab" stroke="#0b62ab" stroke-width="0.2"/>
  </g>
</svg>
