<svg xmlns="http://www.w3.org/2000/svg" width="29.994" height="37.805" viewBox="0 0 29.994 37.805">
  <g id="Group_7538" data-name="Group 7538" transform="translate(-50.9 -223.295)">
    <g id="Group_7270" data-name="Group 7270" transform="translate(51 223.395)">
      <g id="Group_7267" data-name="Group 7267" transform="translate(0 0)">
        <path id="Path_9230" data-name="Path 9230" d="M20.765.291A.91.91,0,0,0,20.111,0H5.441A4.962,4.962,0,0,0,.5,4.932V32.673a4.962,4.962,0,0,0,4.941,4.932H25.352a4.962,4.962,0,0,0,4.941-4.932V10.646a.978.978,0,0,0-.263-.636Zm.263,2.916,6.2,6.513H23.2a2.163,2.163,0,0,1-2.171-2.162Zm4.324,32.582H5.441a3.146,3.146,0,0,1-3.125-3.116V4.932A3.146,3.146,0,0,1,5.441,1.817h13.77V7.557A3.974,3.974,0,0,0,23.2,11.536h5.277V32.673A3.14,3.14,0,0,1,25.352,35.789Zm0,0" transform="translate(-0.5)" fill="#0b62ab" stroke="#0b62ab" stroke-width="0.2"/>
      </g>
    </g>
    <path id="Path_9215" data-name="Path 9215" d="M257.6,273.13a3.785,3.785,0,0,0-5.347,0l-6.92,6.9a1.261,1.261,0,0,0-.316.526l-1.507,4.962a1.26,1.26,0,0,0,1.543,1.581l5.088-1.409a1.259,1.259,0,0,0,.554-.323l6.906-6.893A3.786,3.786,0,0,0,257.6,273.13Zm-8.452,10.222-2.56.709.749-2.466,4.669-4.659,1.783,1.783Zm6.67-6.658-.244.244-1.783-1.783.243-.243a1.261,1.261,0,0,1,1.784,1.782Z" transform="translate(-184.537 -34.854)" fill="#0b62ab"/>
  </g>
</svg>
