<svg xmlns="http://www.w3.org/2000/svg" width="29.994" height="37.805" viewBox="0 0 29.994 37.805">
  <g id="Group_7541" data-name="Group 7541" transform="translate(-352.264 -606.295)">
    <g id="Group_7540" data-name="Group 7540" transform="translate(301.298 421)">
      <g id="Group_7267" data-name="Group 7267" transform="translate(51.066 185.395)">
        <path id="Path_9230" data-name="Path 9230" d="M20.765.291A.91.91,0,0,0,20.111,0H5.441A4.962,4.962,0,0,0,.5,4.932V32.673a4.962,4.962,0,0,0,4.941,4.932H25.352a4.962,4.962,0,0,0,4.941-4.932V10.646a.978.978,0,0,0-.263-.636Zm.263,2.916,6.2,6.513H23.2a2.163,2.163,0,0,1-2.171-2.162Zm4.324,32.582H5.441a3.146,3.146,0,0,1-3.125-3.116V4.932A3.146,3.146,0,0,1,5.441,1.817h13.77V7.557A3.974,3.974,0,0,0,23.2,11.536h5.277V32.673A3.14,3.14,0,0,1,25.352,35.789Zm0,0" transform="translate(-0.5 0)" fill="#0b62ab" stroke="#0b62ab" stroke-width="0.2"/>
      </g>
    </g>
    <rect id="Rectangle_650" data-name="Rectangle 650" width="9" height="2" rx="1" transform="translate(358 620)" fill="#0b62ab"/>
    <rect id="Rectangle_651" data-name="Rectangle 651" width="18" height="2" rx="1" transform="translate(358 625)" fill="#0b62ab"/>
    <rect id="Rectangle_652" data-name="Rectangle 652" width="18" height="2" rx="1" transform="translate(358 630)" fill="#0b62ab"/>
  </g>
</svg>
