<svg xmlns="http://www.w3.org/2000/svg" width="69.095" height="74.03" viewBox="0 0 69.095 74.03">
  <g id="document" transform="translate(1.332)">
    <path id="Path_7060" data-name="Path 7060" d="M51.723,80H14.708a6.169,6.169,0,0,0-6.169,6.169v38.249a1.234,1.234,0,1,0,2.468,0V86.169a3.7,3.7,0,0,1,3.7-3.7H51.723a3.7,3.7,0,0,1,3.7,3.7V137.99a3.7,3.7,0,1,1-7.4,0v-6.169a2.468,2.468,0,0,0-2.468-2.468H1.136a2.467,2.467,0,0,0-2.468,2.468v6.169a6.169,6.169,0,0,0,6.169,6.169H51.723a6.17,6.17,0,0,0,6.169-6.169V86.169A6.17,6.17,0,0,0,51.723,80ZM4.837,141.692a3.7,3.7,0,0,1-3.7-3.7v-6.169H45.554v6.169a6.168,6.168,0,0,0,1.234,3.7Zm0,0" transform="translate(0 -70.129)" fill="#0b62ab"/>
    <path id="Path_7061" data-name="Path 7061" d="M229.643,182.468a1.234,1.234,0,1,0,0-2.468H209.9a1.234,1.234,0,1,0,0,2.468Zm0,0" transform="translate(-184.089 -157.791)" fill="#0b62ab"/>
    <path id="Path_7062" data-name="Path 7062" d="M158.668,241.234a1.234,1.234,0,0,0,1.234,1.234h25.911a1.234,1.234,0,1,0,0-2.468H159.9A1.234,1.234,0,0,0,158.668,241.234Zm0,0" transform="translate(-140.259 -210.388)" fill="#0b62ab"/>
    <path id="Path_7063" data-name="Path 7063" d="M159.9,302.468h25.911a1.234,1.234,0,1,0,0-2.468H159.9a1.234,1.234,0,1,0,0,2.468Zm0,0" transform="translate(-140.259 -262.985)" fill="#0b62ab"/>
    <path id="Path_7064" data-name="Path 7064" d="M159.9,362.468h25.911a1.234,1.234,0,1,0,0-2.468H159.9a1.234,1.234,0,1,0,0,2.468Zm0,0" transform="translate(-140.259 -315.582)" fill="#0b62ab"/>
    <path id="Path_7065" data-name="Path 7065" d="M159.9,422.468h20.975a1.234,1.234,0,0,0,0-2.468H159.9a1.234,1.234,0,0,0,0,2.468Zm0,0" transform="translate(-140.259 -368.179)" fill="#0b62ab"/>
    <path id="Path_7066" data-name="Path 7066" d="M201.852,0H164.837a6.169,6.169,0,0,0-6.169,6.169,1.234,1.234,0,0,0,2.468,0,3.7,3.7,0,0,1,3.7-3.7h37.015a3.7,3.7,0,0,1,3.7,3.7V57.99a3.7,3.7,0,0,1-3.7,3.7,1.234,1.234,0,1,0,0,2.468,6.17,6.17,0,0,0,6.169-6.169V6.169A6.17,6.17,0,0,0,201.852,0Zm0,0" transform="translate(-140.259)" fill="#0b62ab"/>
  </g>
</svg>
