<svg id="email_2_" data-name="email (2)" xmlns="http://www.w3.org/2000/svg" width="16.741" height="16.043" viewBox="0 0 16.741 16.043">
  <path id="Path_10486" data-name="Path 10486" d="M13.278,9.4H7.7A.7.7,0,1,1,7.7,8h5.58a.7.7,0,1,1,0,1.4Z" transform="translate(-2.117 -2.42)" fill="#6c757d"/>
  <path id="Path_10487" data-name="Path 10487" d="M10.488,5.4H7.7A.7.7,0,0,1,7.7,4h2.79a.7.7,0,0,1,0,1.4Z" transform="translate(-2.117 -1.21)" fill="#6c757d"/>
  <path id="Path_10488" data-name="Path 10488" d="M3.7,10.114a.7.7,0,0,1-.7-.7V2.093A2.1,2.1,0,0,1,5.093,0h8.37a2.1,2.1,0,0,1,2.093,2.093V9.417a.7.7,0,1,1-1.4,0V2.093a.7.7,0,0,0-.7-.7H5.093a.7.7,0,0,0-.7.7V9.417A.7.7,0,0,1,3.7,10.114Z" transform="translate(-0.907)" fill="#6c757d"/>
  <path id="Path_10489" data-name="Path 10489" d="M15.65,6.152l-1.7-.927V6.814l1.032.563a.7.7,0,0,1,.363.612v.871L8.779,12.29a.9.9,0,0,1-.815,0L1.4,8.861V7.989a.7.7,0,0,1,.363-.612L2.79,6.814V5.225l-1.7.927A2.089,2.089,0,0,0,0,7.989v7.542a2.1,2.1,0,0,0,2.093,2.093H14.648a2.1,2.1,0,0,0,2.093-2.093V7.989A2.09,2.09,0,0,0,15.65,6.152Z" transform="translate(0 -1.58)" fill="#6c757d"/>
</svg>
