<svg id="brands-and-logotypes" xmlns="http://www.w3.org/2000/svg" width="27.488" height="27.488" viewBox="0 0 27.488 27.488">
  <path id="Path_10520" data-name="Path 10520" d="M291.2,508.668q-.172.028-.345.052Q291.028,508.7,291.2,508.668Zm0,0" transform="translate(-275.24 -481.359)" fill="#3b5998"/>
  <path id="Path_10521" data-name="Path 10521" d="M299.5,507.793l-.164.029Zm0,0" transform="translate(-283.269 -480.531)" fill="#3b5998"/>
  <path id="Path_10522" data-name="Path 10522" d="M278.014,510.34q-.2.023-.4.04Q277.813,510.363,278.014,510.34Zm0,0" transform="translate(-262.706 -482.942)" fill="#3b5998"/>
  <path id="Path_10523" data-name="Path 10523" d="M286.639,509.738l-.194.024Zm0,0" transform="translate(-271.067 -482.372)" fill="#3b5998"/>
  <path id="Path_10524" data-name="Path 10524" d="M306.809,506.41l-.145.03Zm0,0" transform="translate(-290.2 -479.223)" fill="#3b5998"/>
  <path id="Path_10525" data-name="Path 10525" d="M324.6,502.113l-.117.033Zm0,0" transform="translate(-307.064 -475.156)" fill="#3b5998"/>
  <path id="Path_10526" data-name="Path 10526" d="M319.186,503.543l-.128.033Zm0,0" transform="translate(-301.93 -476.51)" fill="#3b5998"/>
  <path id="Path_10527" data-name="Path 10527" d="M312.2,505.254l-.135.03Zm0,0" transform="translate(-295.313 -478.129)" fill="#3b5998"/>
  <path id="Path_10528" data-name="Path 10528" d="M273.7,511.09l-.217.016Zm0,0" transform="translate(-258.798 -483.651)" fill="#3b5998"/>
  <path id="Path_10529" data-name="Path 10529" d="M27.488,13.744A13.744,13.744,0,1,0,13.744,27.488c.081,0,.161,0,.242,0v-10.7H11.033V13.344h2.953V10.812c0-2.937,1.793-4.535,4.413-4.535a24.307,24.307,0,0,1,2.647.135V9.481H19.239c-1.425,0-1.7.677-1.7,1.671v2.192h3.408L20.5,16.785H17.537V26.957a13.751,13.751,0,0,0,9.95-13.213Zm0,0" fill="#3b5998"/>
  <path id="Path_10530" data-name="Path 10530" d="M265.321,511.43q-.215.014-.431.021Q265.107,511.444,265.321,511.43Zm0,0" transform="translate(-250.669 -483.973)" fill="#3b5998"/>
  <path id="Path_10531" data-name="Path 10531" d="M260.732,511.836l-.228.006Zm0,0" transform="translate(-246.518 -484.357)" fill="#3b5998"/>
</svg>
