<svg xmlns="http://www.w3.org/2000/svg" width="20.665" height="29.816" viewBox="0 0 20.665 29.816">
  <path id="Subtraction_2" data-name="Subtraction 2" d="M-5630.667-601.185A10.344,10.344,0,0,1-5641-611.516v-7.267a1.242,1.242,0,0,1,1.242-1.24h2.1v-3.987a7,7,0,0,1,6.992-6.991,7,7,0,0,1,6.991,6.991v3.987h2.1a1.242,1.242,0,0,1,1.242,1.24v7.267A10.343,10.343,0,0,1-5630.667-601.185Zm0-10.655a1.243,1.243,0,0,0-1.242,1.242v3.371a1.243,1.243,0,0,0,1.242,1.242,1.243,1.243,0,0,0,1.241-1.242V-610.6A1.243,1.243,0,0,0-5630.667-611.839Zm0-16.68a4.511,4.511,0,0,0-4.5,4.509v3.987h9.012v-3.987A4.514,4.514,0,0,0-5630.667-628.519Z" transform="translate(5641 631.001)" fill="#707070"/>
</svg>
