<svg xmlns="http://www.w3.org/2000/svg" width="29.338" height="28.682" viewBox="0 0 29.338 28.682">
  <g id="Group_7662" data-name="Group 7662" transform="translate(-12 -11)">
    <g id="logout_2_" data-name="logout (2)" transform="translate(12 9.626)">
      <path id="Path_10534" data-name="Path 10534" d="M20.551,2.808a1.438,1.438,0,0,0-1.434-1.434H1.434A1.438,1.438,0,0,0,0,2.808V23.072a1.459,1.459,0,0,0,.765,1.266l10.9,5.64a.723.723,0,0,0,1.051-.645v-5.5h6.4A1.438,1.438,0,0,0,20.551,22.4V15.232H17.683v5.02a.7.7,0,0,1-.717.717h-4.23V8.806a1.46,1.46,0,0,0-.765-1.266l-6.428-3.3H16.966a.7.7,0,0,1,.717.717V6.972h2.868Z" transform="translate(0 0)" fill="#707070"/>
      <path id="Path_10535" data-name="Path 10535" d="M70.867,16.8l4.66,4.66a1.43,1.43,0,0,1,0,2.079l-4.66,4.66a1.458,1.458,0,0,1-2.1.024,1.524,1.524,0,0,1,.048-2.1l2.1-2.079H62.766a1.414,1.414,0,0,1-1.075-.478,1.622,1.622,0,0,1,.358-2.461,1.532,1.532,0,0,1,.717-.191h8.149s-2.079-2.079-2.1-2.079A1.446,1.446,0,1,1,70.867,16.8Z" transform="translate(-46.636 -11.385)" fill="#707070"/>
    </g>
  </g>
</svg>
