<svg xmlns="http://www.w3.org/2000/svg" width="14.02" height="22.421" viewBox="0 0 14.02 22.421">
  <g id="mic" transform="translate(-95.922)">
    <g id="Group_6" data-name="Group 6" transform="translate(99.004)">
      <g id="Group_5" data-name="Group 5">
        <path id="Path_2" data-name="Path 2" d="M170.235,0a3.932,3.932,0,0,0-3.928,3.928v7.719a3.928,3.928,0,0,0,7.856.027V3.928A3.932,3.932,0,0,0,170.235,0Zm2.291,11.674a2.291,2.291,0,0,1-4.582-.027V3.928a2.291,2.291,0,1,1,4.582,0Z" transform="translate(-166.307)" fill="#98989c"/>
      </g>
    </g>
    <g id="Group_8" data-name="Group 8" transform="translate(102.114 17.921)">
      <g id="Group_7" data-name="Group 7">
        <rect id="Rectangle_8295" data-name="Rectangle 8295" width="1.637" height="3.682" fill="#98989c"/>
      </g>
    </g>
    <g id="Group_10" data-name="Group 10" transform="translate(99.959 20.785)">
      <g id="Group_9" data-name="Group 9">
        <path id="Path_3" data-name="Path 3" d="M193.235,474.628h-4.31a.818.818,0,1,0,0,1.637h4.31a.818.818,0,0,0,0-1.637Z" transform="translate(-188.107 -474.628)" fill="#98989c"/>
      </g>
    </g>
    <g id="Group_12" data-name="Group 12" transform="translate(95.922 10.283)">
      <g id="Group_11" data-name="Group 11">
        <path id="Path_4" data-name="Path 4" d="M109.124,234.822a.818.818,0,0,0-.818.818v.655a5.373,5.373,0,1,1-10.747,0v-.655a.818.818,0,1,0-1.637,0v.655a7.01,7.01,0,1,0,14.02,0v-.655A.818.818,0,0,0,109.124,234.822Z" transform="translate(-95.922 -234.822)" fill="#98989c"/>
      </g>
    </g>
  </g>
</svg>
