<svg xmlns="http://www.w3.org/2000/svg" width="46.498" height="47.438" viewBox="0 0 46.498 47.438">
  <g id="money_3_" data-name="money (3)" transform="translate(-4.894 0)">
    <path id="Path_10434" data-name="Path 10434" d="M50.8,26.355l-.72-.98a3.087,3.087,0,0,1-.029-3.6l.7-.989a3.081,3.081,0,0,0-1.066-4.505L48.609,15.7a3.083,3.083,0,0,1-1.585-3.237l.2-1.2a3.09,3.09,0,0,0-2.92-3.6l-1.21-.048a3.081,3.081,0,0,1-2.834-2.229l-.336-1.172a3.091,3.091,0,0,0-4.188-1.979l-1.114.48A3.09,3.09,0,0,1,31.1,1.937l-.807-.9a3.091,3.091,0,0,0-4.64.029l-.8.913a3.086,3.086,0,0,1-3.506.826L20.223,2.34a3.088,3.088,0,0,0-4.159,2.046l-.317,1.172a3.088,3.088,0,0,1-2.8,2.267l-1.21.067a3.09,3.09,0,0,0-2.863,3.641l.221,1.191A3.091,3.091,0,0,1,7.553,15.98l-1.066.586a3.093,3.093,0,0,0-1,4.524l.72.98a3.087,3.087,0,0,1,.029,3.6l-.7.989A3.081,3.081,0,0,0,6.6,31.167l1.076.576a3.083,3.083,0,0,1,1.585,3.237l-.2,1.2a3.09,3.09,0,0,0,2.92,3.6l1.21.048a3.081,3.081,0,0,1,2.834,2.229l.336,1.172a3.091,3.091,0,0,0,4.188,1.979l1.114-.48a3.09,3.09,0,0,1,3.525.778l.807.9a3.088,3.088,0,0,0,4.63-.038l.8-.913a3.086,3.086,0,0,1,3.506-.826l1.124.461a3.088,3.088,0,0,0,4.159-2.046l.317-1.172a3.088,3.088,0,0,1,2.8-2.267l1.21-.067A3.09,3.09,0,0,0,47.408,35.9l-.221-1.191a3.091,3.091,0,0,1,1.537-3.256l1.066-.586A3.077,3.077,0,0,0,50.8,26.355ZM33.864,31.6a6.487,6.487,0,0,1-3.324,2.133.927.927,0,0,0-.807,1.057c.029.586,0,1.182,0,1.767a.722.722,0,0,1-.788.817q-.951.029-1.9,0a.769.769,0,0,1-.826-.865c-.01-.432-.01-.865-.01-1.287-.01-.951-.038-.989-.951-1.133a11.774,11.774,0,0,1-3.381-.97c-.836-.4-.922-.615-.682-1.5.183-.653.355-1.316.567-1.96.24-.749.442-.845,1.134-.49a10.964,10.964,0,0,0,3.756,1.124,4.627,4.627,0,0,0,2.469-.327,1.916,1.916,0,0,0,.461-3.362,6.052,6.052,0,0,0-1.4-.826,32.828,32.828,0,0,1-3.842-1.729c-1.969-1.182-3.218-2.8-3.074-5.2a5.725,5.725,0,0,1,4.179-5.3c1.028-.375,1.028-.355,1.037-1.431V11.033c.019-.807.154-.951.961-.97.25-.01.5,0,.749,0,1.71,0,1.71,0,1.719,1.71.01,1.21,0,1.22,1.21,1.4a10.755,10.755,0,0,1,2.661.8.783.783,0,0,1,.509,1.037c-.211.74-.413,1.489-.653,2.219-.221.692-.442.8-1.114.471a8.523,8.523,0,0,0-4.217-.836,3.216,3.216,0,0,0-1.124.231,1.589,1.589,0,0,0-.394,2.834,7.318,7.318,0,0,0,1.835,1.028,32.623,32.623,0,0,1,3.343,1.508A6.033,6.033,0,0,1,33.864,31.6Z" fill="#fff"/>
  </g>
</svg>
