<svg xmlns="http://www.w3.org/2000/svg" width="119" height="119" viewBox="0 0 119 119">
  <g id="Group_7257" data-name="Group 7257" transform="translate(-895 -355)">
    <g id="Ellipse_63" data-name="Ellipse 63" transform="translate(895 355)" fill="#fff" stroke="#a4afb7" stroke-width="1">
      <circle cx="59.5" cy="59.5" r="59.5" stroke="none"/>
      <circle cx="59.5" cy="59.5" r="59" fill="none"/>
    </g>
    <g id="Group_7244" data-name="Group 7244" transform="translate(925.586 381.077)">
      <g id="Group_7243" data-name="Group 7243" transform="translate(43.705 33.331)">
        <path id="Path_7031" data-name="Path 7031" d="M3.034,29.6h12.4a1.034,1.034,0,0,0,1.034-1.034V12.034A1.034,1.034,0,0,0,15.436,11H3.034A1.034,1.034,0,0,0,2,12.034V28.57A1.034,1.034,0,0,0,3.034,29.6ZM4.067,13.067H14.4V27.536H4.067Z" transform="translate(-2 -11)" fill="#a4afb7"/>
        <path id="Path_7032" data-name="Path 7032" d="M11.1,15H9.034a1.034,1.034,0,1,0,0,2.067H11.1A1.034,1.034,0,0,0,11.1,15Z" transform="translate(-1.799 -10.866)" fill="#a4afb7"/>
        <path id="Path_7033" data-name="Path 7033" d="M11.168,19H7.034a1.034,1.034,0,0,0,0,2.067h4.134a1.034,1.034,0,0,0,0-2.067Z" transform="translate(-1.866 -10.732)" fill="#a4afb7"/>
        <path id="Path_7034" data-name="Path 7034" d="M11.168,23H7.034a1.034,1.034,0,0,0,0,2.067h4.134a1.034,1.034,0,0,0,0-2.067Z" transform="translate(-1.866 -10.598)" fill="#a4afb7"/>
      </g>
      <g id="Group_7242" data-name="Group 7242" transform="translate(0 5.639)">
        <path id="Path_7021" data-name="Path 7021" d="M41.206,56.644h-2.24V45.666a1.12,1.12,0,1,0-2.24,0V56.644H7.6V34.24h9.32a1.12,1.12,0,0,0,0-2.24H6.481a1.12,1.12,0,0,0-1.12,1.12V56.644H3.12A1.12,1.12,0,0,0,2,57.764V60a5.6,5.6,0,0,0,5.6,5.6H36.725a5.6,5.6,0,0,0,5.6-5.6v-2.24A1.12,1.12,0,0,0,41.206,56.644ZM40.086,60a3.361,3.361,0,0,1-3.361,3.361h-2.24v-1.12a1.12,1.12,0,1,0-2.24,0v1.12H12.082v-1.12a1.12,1.12,0,1,0-2.24,0v1.12H7.6A3.361,3.361,0,0,1,4.24,60v-1.12H40.086Z" transform="translate(-2 -15.197)" fill="#a4afb7"/>
        <path id="Path_7028" data-name="Path 7028" d="M37.12,23.721a1.12,1.12,0,0,0,.9-.448l3.361-4.481a1.12,1.12,0,1,0-1.792-1.344l-3.361,4.481a1.12,1.12,0,0,0,.9,1.792Z" transform="translate(2.086 -17)" fill="#a4afb7"/>
        <path id="Path_7029" data-name="Path 7029" d="M39.224,27.153a1.12,1.12,0,0,0,1.568.224l4.481-3.361a1.12,1.12,0,0,0-1.344-1.792l-4.481,3.361a1.12,1.12,0,0,0-.224,1.568Z" transform="translate(2.447 -16.399)" fill="#a4afb7"/>
        <path id="Path_7030" data-name="Path 7030" d="M49.854,28.9A1.12,1.12,0,0,0,48.51,28l-5.6,1.12a1.126,1.126,0,0,0,.224,2.24h.224l5.6-1.12a1.12,1.12,0,0,0,.9-1.344Z" transform="translate(2.795 -15.681)" fill="#a4afb7"/>
        <path id="Path_7035" data-name="Path 7035" d="M39.375,29.385a1.124,1.124,0,0,0-1.949,1.12l4.94,8.547L24.443,45.773h-.168l-2.912,1.68-1.938,1.12a2.237,2.237,0,0,1-3.058-.818l-2.24-3.876a2.24,2.24,0,0,1,.84-2.957l3.876-2.24,2.8,4.85a1.124,1.124,0,0,0,1.949-1.12l-2.89-5L34.76,25.823l.459.8a1.124,1.124,0,1,0,1.949-1.12l-1.12-1.938a1.135,1.135,0,0,0-1.691-.3L18.674,36.184,13.9,38.94a4.481,4.481,0,0,0-2.061,5.074l-1.12.639a3.358,3.358,0,0,0,1.68,6.273,3.428,3.428,0,0,0,1.68-.448l1.12-.638A4.346,4.346,0,0,0,17.162,51a4.245,4.245,0,0,0,1.176.157,4.414,4.414,0,0,0,2.24-.6l.975-.56,2.24,3.887a3.358,3.358,0,1,0,5.814-3.361l-2.039-3.551,16.8-6.307a1.123,1.123,0,0,0,.582-1.6ZM12.917,48.528A1.119,1.119,0,1,1,11.8,46.59l.975-.56,1.12,1.938Zm14.741,3.136a1.119,1.119,0,0,1-1.938,1.12L23.48,48.9l1.859-1.064h.09Z" transform="translate(-1.154 -16.278)" fill="#a4afb7"/>
      </g>
      <g id="Group_7240" data-name="Group 7240" transform="translate(10.139)">
        <path id="Path_7048" data-name="Path 7048" d="M75.052,356.849l-3.719,3.709L69.1,358.331a1.051,1.051,0,1,0-1.482,1.492l2.228,2.228a2.118,2.118,0,0,0,2.974,0l3.709-3.72a1.051,1.051,0,0,0-1.482-1.482Zm0,0" transform="translate(-62.674 -350.744)" fill="#a4afb7"/>
        <path id="Path_7049" data-name="Path 7049" d="M32,320.972a8.931,8.931,0,0,0,17.863,0,1.051,1.051,0,1,0-2.1,0,6.831,6.831,0,1,1-2.732-5.464,1.051,1.051,0,0,0,1.261-1.681A8.931,8.931,0,0,0,32,320.972Zm0,0" transform="translate(-32 -312.041)" fill="#a4afb7"/>
      </g>
    </g>
  </g>
</svg>
