<svg xmlns="http://www.w3.org/2000/svg" width="76.361" height="73.568" viewBox="0 0 76.361 73.568">
  <g id="Group_7244" data-name="Group 7244" transform="translate(-4077.271 -7387.136)">
    <g id="Group_7243" data-name="Group 7243" transform="translate(4134.639 7430.887)">
      <path id="Path_7031" data-name="Path 7031" d="M3.357,35.419H19.636a1.357,1.357,0,0,0,1.357-1.357V12.357A1.357,1.357,0,0,0,19.636,11H3.357A1.357,1.357,0,0,0,2,12.357V34.063A1.357,1.357,0,0,0,3.357,35.419ZM4.713,13.713H18.279V32.706H4.713Z" transform="translate(-2 -11)" fill="#a4afb7"/>
      <path id="Path_7032" data-name="Path 7032" d="M12.07,15H9.357a1.357,1.357,0,0,0,0,2.713H12.07a1.357,1.357,0,0,0,0-2.713Z" transform="translate(0.14 -9.573)" fill="#a4afb7"/>
      <path id="Path_7033" data-name="Path 7033" d="M12.783,19H7.357a1.357,1.357,0,1,0,0,2.713h5.426a1.357,1.357,0,0,0,0-2.713Z" transform="translate(-0.573 -8.147)" fill="#a4afb7"/>
      <path id="Path_7034" data-name="Path 7034" d="M12.783,23H7.357a1.357,1.357,0,1,0,0,2.713h5.426a1.357,1.357,0,0,0,0-2.713Z" transform="translate(-0.573 -6.721)" fill="#a4afb7"/>
    </g>
    <g id="Group_7242" data-name="Group 7242" transform="translate(4077.271 7394.538)">
      <path id="Path_7021" data-name="Path 7021" d="M53.463,64.348H50.522V49.938a1.47,1.47,0,1,0-2.941,0v14.41H9.352V34.941H21.585a1.47,1.47,0,0,0,0-2.941H7.881a1.47,1.47,0,0,0-1.47,1.47V64.348H3.47A1.47,1.47,0,0,0,2,65.818v2.941a7.352,7.352,0,0,0,7.352,7.352H47.581a7.352,7.352,0,0,0,7.352-7.352V65.818A1.47,1.47,0,0,0,53.463,64.348Zm-1.47,4.411a4.411,4.411,0,0,1-4.411,4.411H44.641V71.7a1.47,1.47,0,1,0-2.941,0v1.47H15.233V71.7a1.47,1.47,0,1,0-2.941,0v1.47H9.352a4.411,4.411,0,0,1-4.411-4.411v-1.47H51.992Z" transform="translate(-2 -9.944)" fill="#a4afb7"/>
      <path id="Path_7028" data-name="Path 7028" d="M37.47,25.822a1.47,1.47,0,0,0,1.176-.588l4.411-5.881a1.47,1.47,0,0,0-2.353-1.764L36.294,23.47a1.47,1.47,0,0,0,1.176,2.353Z" transform="translate(13.993 -17)" fill="#a4afb7"/>
      <path id="Path_7029" data-name="Path 7029" d="M39.294,28.764a1.47,1.47,0,0,0,2.059.294l5.881-4.411a1.47,1.47,0,1,0-1.764-2.353l-5.881,4.411a1.47,1.47,0,0,0-.294,2.059Z" transform="translate(15.404 -14.648)" fill="#a4afb7"/>
      <path id="Path_7030" data-name="Path 7030" d="M52.342,29.187a1.47,1.47,0,0,0-1.764-1.176l-7.352,1.47a1.478,1.478,0,0,0,.294,2.941h.294l7.352-1.47a1.47,1.47,0,0,0,1.176-1.764Z" transform="translate(16.766 -11.837)" fill="#a4afb7"/>
      <path id="Path_7035" data-name="Path 7035" d="M48.86,31.38A1.475,1.475,0,0,0,46.3,32.85l6.484,11.219L29.26,52.891H29.04L25.217,55.1l-2.544,1.47a2.936,2.936,0,0,1-4.014-1.073l-2.941-5.087a2.941,2.941,0,0,1,1.1-3.882l5.087-2.941,3.676,6.367a1.475,1.475,0,0,0,2.558-1.47l-3.794-6.558L42.8,26.7l.6,1.044a1.475,1.475,0,0,0,2.558-1.47l-1.47-2.544a1.49,1.49,0,0,0-2.22-.4L21.688,40.3l-6.264,3.617a5.881,5.881,0,0,0-2.705,6.661l-1.47.838a4.408,4.408,0,0,0,2.206,8.234,4.5,4.5,0,0,0,2.206-.588l1.47-.838A5.7,5.7,0,0,0,19.7,59.758a5.573,5.573,0,0,0,1.544.206,5.793,5.793,0,0,0,2.941-.794l1.279-.735,2.941,5.1a4.407,4.407,0,1,0,7.631-4.411l-2.676-4.661,22.055-8.278a1.475,1.475,0,0,0,.765-2.1ZM14.13,56.508a1.469,1.469,0,1,1-1.47-2.544l1.279-.735,1.47,2.544Zm19.35,4.117a1.469,1.469,0,0,1-2.544,1.47L28,56.994l2.441-1.4h.118Z" transform="translate(1.309 -14.176)" fill="#a4afb7"/>
    </g>
    <g id="Group_7240" data-name="Group 7240" transform="translate(4090.58 7387.136)">
      <path id="Path_7048" data-name="Path 7048" d="M77.471,356.928,72.589,361.8l-2.924-2.924a1.38,1.38,0,1,0-1.945,1.958l2.924,2.924a2.781,2.781,0,0,0,3.9,0l4.868-4.883a1.379,1.379,0,0,0-1.945-1.945Zm0,0" transform="translate(-61.224 -348.915)" fill="#a4afb7"/>
      <path id="Path_7049" data-name="Path 7049" d="M32,323.764a11.723,11.723,0,0,0,23.447,0,1.379,1.379,0,1,0-2.758,0,8.966,8.966,0,1,1-3.586-7.172,1.379,1.379,0,0,0,1.655-2.207A11.723,11.723,0,0,0,32,323.764Zm0,0" transform="translate(-32 -312.041)" fill="#a4afb7"/>
    </g>
  </g>
</svg>
