<svg xmlns="http://www.w3.org/2000/svg" width="27.989" height="27.989" viewBox="0 0 27.989 27.989">
  <g id="Group_7682" data-name="Group 7682" transform="translate(-11.431 -11.431)">
    <g id="symbols" transform="translate(11.431 11.431)">
      <g id="Group_7680" data-name="Group 7680">
        <g id="Group_7679" data-name="Group 7679">
          <path id="Path_10554" data-name="Path 10554" d="M2.8,85.333H0v19.592a2.8,2.8,0,0,0,2.8,2.8H22.391v-2.8H2.8Z" transform="translate(0 -79.735)" fill="#707070"/>
          <rect id="Rectangle_1049" data-name="Rectangle 1049" width="1.399" height="1.399" transform="translate(9.796 9.096)" fill="#707070"/>
          <path id="Path_10555" data-name="Path 10555" d="M104.925,0H88.132a2.8,2.8,0,0,0-2.8,2.8V19.592a2.8,2.8,0,0,0,2.8,2.8h16.793a2.8,2.8,0,0,0,2.8-2.8V2.8A2.8,2.8,0,0,0,104.925,0ZM93.03,10.5a2.1,2.1,0,0,1-2.1,2.1h-1.4v2.8h-2.1V7h3.5a2.1,2.1,0,0,1,2.1,2.1Zm7,2.8a2.1,2.1,0,0,1-2.1,2.1h-3.5V7h3.5a2.1,2.1,0,0,1,2.1,2.1Zm5.6-4.2h-2.1v1.4h2.1v2.1h-2.1v2.8h-2.1V7h4.2Z" transform="translate(-79.735)" fill="#707070"/>
          <rect id="Rectangle_1050" data-name="Rectangle 1050" width="1.399" height="4.198" transform="translate(16.793 9.096)" fill="#707070"/>
        </g>
      </g>
    </g>
  </g>
</svg>
