<svg xmlns="http://www.w3.org/2000/svg" width="133" height="133" viewBox="0 0 133 133">
  <g id="Group_7255" data-name="Group 7255" transform="translate(-268 -348)">
    <g id="Ellipse_58" data-name="Ellipse 58" transform="translate(269 349)" fill="#fff" stroke="#a4afb7" stroke-width="1">
      <circle cx="65.5" cy="65.5" r="65.5" stroke="none"/>
      <circle cx="65.5" cy="65.5" r="66" fill="none"/>
    </g>
    <path id="Subtraction_1" data-name="Subtraction 1" d="M-3770.5-6728a65.09,65.09,0,0,1-25.5-5.147,65.275,65.275,0,0,1-20.82-14.037,65.282,65.282,0,0,1-14.037-20.82,65.091,65.091,0,0,1-5.147-25.5,65.088,65.088,0,0,1,5.147-25.5,65.285,65.285,0,0,1,14.037-20.819,65.275,65.275,0,0,1,20.82-14.037,65.09,65.09,0,0,1,25.5-5.147l.489,0h.012v131h-.5Z" transform="translate(4105 7208)" fill="#77a841"/>
    <g id="Ellipse_59" data-name="Ellipse 59" transform="translate(284 364)" fill="#fff" stroke="#a4afb7" stroke-width="1">
      <circle cx="50.5" cy="50.5" r="50.5" stroke="none"/>
      <circle cx="50.5" cy="50.5" r="50" fill="none"/>
    </g>
  </g>
</svg>
