<svg xmlns="http://www.w3.org/2000/svg" width="16.887" height="16.885" viewBox="0 0 16.887 16.885">
  <path id="Subtraction_5" data-name="Subtraction 5" d="M-5478.557-370.114a8.389,8.389,0,0,1-5.972-2.472,8.389,8.389,0,0,1-2.472-5.972,8.384,8.384,0,0,1,2.473-5.971,8.39,8.39,0,0,1,5.971-2.471,8.388,8.388,0,0,1,5.972,2.471,8.386,8.386,0,0,1,2.472,5.97,8.389,8.389,0,0,1-2.472,5.972A8.388,8.388,0,0,1-5478.557-370.114Zm-.154-5.51a.825.825,0,0,0-.824.824.826.826,0,0,0,.824.825.825.825,0,0,0,.823-.825A.824.824,0,0,0-5478.711-375.624Zm0-6.1a1.321,1.321,0,0,1,1.319,1.32,1.32,1.32,0,0,1-1.319,1.319.661.661,0,0,0-.66.66v1.649a.661.661,0,0,0,.66.66.66.66,0,0,0,.658-.66v-1.072a2.637,2.637,0,0,0,1.98-2.555,2.642,2.642,0,0,0-2.639-2.639,2.642,2.642,0,0,0-2.639,2.639.66.66,0,0,0,.66.659.659.659,0,0,0,.658-.659A1.321,1.321,0,0,1-5478.711-381.726Z" transform="translate(5487 386.999)" fill="#6c757d"/>
</svg>
