<svg xmlns="http://www.w3.org/2000/svg" width="73.581" height="73.568" viewBox="0 0 73.581 73.568">
  <g id="Group_7245" data-name="Group 7245" transform="translate(0 0)">
    <g id="contract_1_" data-name="contract (1)" transform="translate(0 0)">
      <path id="Path_7036" data-name="Path 7036" d="M236.083,98.745a3.681,3.681,0,0,0-6.744-.883l-.613,1.067a1.226,1.226,0,0,0-1.667.442l-3.114,5.309-1.067-.613a1.225,1.225,0,1,0-1.226,2.121l1.067.613L212.3,124.861l-2.575,6.879-1.226,2.292a3.679,3.679,0,0,0,.2,3.973l-2.759,3.384-.772-1.937a2.453,2.453,0,0,0-4.378-.344l-.441.748-.417-4.9a2.452,2.452,0,0,0-4.77-.576l-3.016,9.049a1.226,1.226,0,0,0,.772,1.545,1.061,1.061,0,0,0,.38.1,1.226,1.226,0,0,0,1.165-.833l3-9.049.429,4.978a2.452,2.452,0,0,0,4.549,1.055l.454-.748.76,1.925a2.452,2.452,0,0,0,4.193.625L210.7,139.4a3.777,3.777,0,0,0,.969.123,3.679,3.679,0,0,0,3.2-1.815l1.226-2.048,4.672-5.677L231.3,111.7l1.067.613a1.229,1.229,0,0,1,.454,1.68l-4.9,8.5a1.217,1.217,0,1,0,2.072,1.275l4.9-8.5a3.677,3.677,0,0,0-1.349-5.027l-1.067-.613,3.065-5.309a1.227,1.227,0,0,0-.441-1.667l.613-1.067a3.677,3.677,0,0,0,.368-2.844Zm-4.623.343a1.226,1.226,0,0,1,.748-.576,1.287,1.287,0,0,1,.932.123,1.227,1.227,0,0,1,.577.748,1.287,1.287,0,0,1-.123.932l-.613,1.067-2.134-1.226Zm-16.712,34.234-.613-.356-1.815-1.055,1.741-4.659,3.862,2.231Zm-3.678,3.543a1.225,1.225,0,0,1-.368-1.606l.613-1.066,2.133,1.226-.613,1.054a1.226,1.226,0,0,1-1.766.392Zm8.252-9.392-4.242-2.452,9.809-16.995,4.242,2.452Zm11.035-19.116-4.242-2.452,2.452-4.242,4.242,2.452Zm0,0" transform="translate(-162.637 -81.309)" fill="#a4afb7"/>
      <path id="Path_7037" data-name="Path 7037" d="M76.344,356.891,72,361.22l-2.6-2.6a1.227,1.227,0,1,0-1.729,1.741l2.6,2.6a2.472,2.472,0,0,0,3.47,0l4.328-4.341a1.226,1.226,0,0,0-1.729-1.729Zm0,0" transform="translate(-56.995 -301.948)" fill="#a4afb7"/>
      <path id="Path_7038" data-name="Path 7038" d="M32,322.463a10.422,10.422,0,1,0,20.844,0,1.226,1.226,0,0,0-2.452,0,7.971,7.971,0,1,1-3.188-6.376,1.226,1.226,0,0,0,1.472-1.962A10.422,10.422,0,0,0,32,322.463Zm0,0" transform="translate(-27.095 -264.221)" fill="#a4afb7"/>
      <path id="Path_7039" data-name="Path 7039" d="M105.106,50.491a1.226,1.226,0,0,0,0-2.452H73.226A1.226,1.226,0,0,0,72,49.265v4.9A1.226,1.226,0,0,0,73.226,55.4h31.88a1.226,1.226,0,0,0,0-2.452H74.452V50.491Zm0,0" transform="translate(-60.965 -40.682)" fill="#a4afb7"/>
      <path id="Path_7040" data-name="Path 7040" d="M97.226,112.039a1.226,1.226,0,1,0,0,2.452h24.523a1.226,1.226,0,1,0,0-2.452Zm0,0" transform="translate(-81.286 -94.873)" fill="#a4afb7"/>
      <path id="Path_7041" data-name="Path 7041" d="M156.2,168.039H129.226a1.226,1.226,0,1,0,0,2.452H156.2a1.226,1.226,0,1,0,0-2.452Zm0,0" transform="translate(-108.382 -142.29)" fill="#a4afb7"/>
      <path id="Path_7042" data-name="Path 7042" d="M82.975,217.265a1.226,1.226,0,0,0-1.226-1.226H57.226a1.226,1.226,0,1,0,0,2.452H81.749A1.226,1.226,0,0,0,82.975,217.265Zm0,0" transform="translate(-47.417 -182.933)" fill="#a4afb7"/>
      <path id="Path_7043" data-name="Path 7043" d="M257.809,216.039h-8.583a1.226,1.226,0,1,0,0,2.452h8.583a1.226,1.226,0,0,0,0-2.452Zm0,0" transform="translate(-209.99 -182.933)" fill="#a4afb7"/>
      <path id="Path_7044" data-name="Path 7044" d="M69.488,258.491a1.226,1.226,0,1,0,0-2.452H57.226a1.226,1.226,0,1,0,0,2.452Zm0,0" transform="translate(-47.417 -216.803)" fill="#a4afb7"/>
      <path id="Path_7045" data-name="Path 7045" d="M169.226,258.491h8.583a1.226,1.226,0,0,0,0-2.452h-8.583a1.226,1.226,0,1,0,0,2.452Zm0,0" transform="translate(-142.251 -216.803)" fill="#a4afb7"/>
      <path id="Path_7046" data-name="Path 7046" d="M55.176,56.441a1.226,1.226,0,0,0-1.226,1.226V69.929a1.226,1.226,0,0,1-1.226,1.226H3.678a1.226,1.226,0,0,1-1.226-1.226V3.717A1.226,1.226,0,0,1,3.678,2.491H52.724A1.226,1.226,0,0,1,53.95,3.717V26.745a1.226,1.226,0,1,0,2.452,0V3.717A3.679,3.679,0,0,0,52.724.039H3.678A3.679,3.679,0,0,0,0,3.717V69.929a3.678,3.678,0,0,0,3.678,3.678H52.724A3.678,3.678,0,0,0,56.4,69.929V57.667A1.226,1.226,0,0,0,55.176,56.441Zm0,0" transform="translate(0 -0.039)" fill="#a4afb7"/>
    </g>
  </g>
</svg>
