<svg xmlns="http://www.w3.org/2000/svg" width="84.821" height="73.538" viewBox="0 0 84.821 73.538">
  <g id="upload_1_" data-name="upload (1)" transform="translate(0 -0.413)">
    <path id="Path_7050" data-name="Path 7050" d="M72.689,20.594A27.038,27.038,0,0,0,46.668.413,26.714,26.714,0,0,0,22.132,16.365a17.755,17.755,0,0,0-3.747-.4,18.384,18.384,0,0,0,0,36.769,1.414,1.414,0,1,0,0-2.828,15.556,15.556,0,0,1,0-31.112,15.361,15.361,0,0,1,4.243.594,1.414,1.414,0,0,0,1.711-.849,23.9,23.9,0,0,1,22.33-15.3A24.183,24.183,0,0,1,70.144,22.121,1.414,1.414,0,0,0,71.3,23.21,12.728,12.728,0,1,1,66.75,48.2a1.442,1.442,0,0,0-.566,2.828,15.087,15.087,0,0,0,3.111.3,15.556,15.556,0,0,0,3.394-30.73Zm0,0" fill="#a4afb7"/>
    <path id="Path_7051" data-name="Path 7051" d="M166.182,144.413H140.727a1.413,1.413,0,0,0-1,.4l-11.314,11.314a1.411,1.411,0,0,0-.41,1.019v33.941a1.414,1.414,0,0,0,1.414,1.414h36.769a1.414,1.414,0,0,0,1.414-1.414v-6.958a1.414,1.414,0,0,0-2.828,0v5.544H130.827V158.555h9.9a1.414,1.414,0,0,0,1.414-1.414v-9.9h22.627v31.352a1.414,1.414,0,0,0,2.828,0V145.827A1.414,1.414,0,0,0,166.182,144.413Zm-26.87,11.314h-6.491l6.491-6.492Zm0,0" transform="translate(-105.372 -118.544)" fill="#a4afb7"/>
    <path id="Path_7052" data-name="Path 7052" d="M243.314,224.414h-9.9a1.414,1.414,0,1,0,0,2.828h9.9a1.414,1.414,0,1,0,0-2.828Zm0,0" transform="translate(-190.989 -184.403)" fill="#a4afb7"/>
    <path id="Path_7053" data-name="Path 7053" d="M197.213,264.414h-19.8a1.414,1.414,0,0,0,0,2.828h19.8a1.414,1.414,0,0,0,0-2.828Zm0,0" transform="translate(-144.888 -217.332)" fill="#a4afb7"/>
    <path id="Path_7054" data-name="Path 7054" d="M197.213,304.414h-19.8a1.414,1.414,0,0,0,0,2.828h19.8a1.414,1.414,0,0,0,0-2.828Zm0,0" transform="translate(-144.888 -250.261)" fill="#a4afb7"/>
    <path id="Path_7055" data-name="Path 7055" d="M197.213,344.414h-19.8a1.414,1.414,0,1,0,0,2.828h19.8a1.414,1.414,0,0,0,0-2.828Zm0,0" transform="translate(-144.888 -283.191)" fill="#a4afb7"/>
    <path id="Path_7056" data-name="Path 7056" d="M5.662,11.322A1.414,1.414,0,0,0,7.077,9.908V4.83L8.9,6.669A1.42,1.42,0,1,0,10.909,4.66L6.666.418a1.415,1.415,0,0,0-2.008,0L.416,4.66A1.42,1.42,0,0,0,2.424,6.669L4.248,4.83V9.908A1.414,1.414,0,0,0,5.662,11.322Zm0,0" transform="translate(52.333 20.212) rotate(180)" fill="#a4afb7"/>
    <path id="Path_7057" data-name="Path 7057" d="M186.828,84.657V81.828a1.414,1.414,0,0,0-2.828,0v2.828a1.414,1.414,0,0,0,2.828,0Zm0,0" transform="translate(-151.474 -65.859)" fill="#a4afb7"/>
    <path id="Path_7058" data-name="Path 7058" d="M394.828,175.485v-5.657a1.414,1.414,0,0,0-2.828,0v5.657a1.414,1.414,0,1,0,2.828,0Zm0,0" transform="translate(-322.705 -138.303)" fill="#a4afb7"/>
    <path id="Path_7059" data-name="Path 7059" d="M88,145.828v8.485a1.414,1.414,0,0,0,2.828,0v-8.485a1.414,1.414,0,0,0-2.828,0Zm0,0" transform="translate(-72.444 -118.545)" fill="#a4afb7"/>
  </g>
</svg>
