<svg xmlns="http://www.w3.org/2000/svg" width="24.469" height="27.336" viewBox="0 0 24.469 27.336">
  <g id="user" transform="translate(-24.165)">
    <g id="Group_7622" data-name="Group 7622" transform="translate(29.304)">
      <g id="Group_7621" data-name="Group 7621" transform="translate(0)">
        <path id="Path_10490" data-name="Path 10490" d="M117.888,0a7.1,7.1,0,1,0,7.1,7.1A7.116,7.116,0,0,0,117.888,0Z" transform="translate(-110.791)" fill="#707070"/>
      </g>
    </g>
    <g id="Group_7624" data-name="Group 7624" transform="translate(24.165 14.702)">
      <g id="Group_7623" data-name="Group 7623">
        <path id="Path_10491" data-name="Path 10491" d="M48.581,253a6.617,6.617,0,0,0-.713-1.3,8.822,8.822,0,0,0-6.106-3.843,1.306,1.306,0,0,0-.9.217,7.565,7.565,0,0,1-8.926,0,1.163,1.163,0,0,0-.9-.217,8.758,8.758,0,0,0-6.106,3.843,7.631,7.631,0,0,0-.713,1.3.659.659,0,0,0,.031.589,12.359,12.359,0,0,0,.837,1.24,11.776,11.776,0,0,0,1.426,1.612,18.582,18.582,0,0,0,1.426,1.24,14.134,14.134,0,0,0,16.86,0,13.628,13.628,0,0,0,1.426-1.24,14.308,14.308,0,0,0,1.426-1.612,10.865,10.865,0,0,0,.837-1.24A.529.529,0,0,0,48.581,253Z" transform="translate(-24.165 -247.841)" fill="#707070"/>
      </g>
    </g>
  </g>
</svg>
