<svg xmlns="http://www.w3.org/2000/svg" width="26.547" height="28.639" viewBox="0 0 26.547 28.639">
  <g id="Group_7683" data-name="Group 7683" transform="translate(-10 -11)">
    <g id="interface_2_" data-name="interface (2)" transform="translate(10 -4.989)">
      <g id="Group_7678" data-name="Group 7678" transform="translate(0 15.989)">
        <path id="Path_10553" data-name="Path 10553" d="M25.592,19.809h-8.41V16.945a.952.952,0,0,0-.346-.735.938.938,0,0,0-.785-.2L.779,18.872A.952.952,0,0,0,0,19.809v21a.953.953,0,0,0,.779.937l15.273,2.864a.9.9,0,0,0,.176.017.955.955,0,0,0,.955-.955V40.81h8.41a.955.955,0,0,0,.955-.955V20.764A.955.955,0,0,0,25.592,19.809ZM13.359,26.6,12.4,35.189a.955.955,0,0,1-.83.84.821.821,0,0,1-.118.008.957.957,0,0,1-.893-.619l-1.97-5.254-1.97,5.254a.955.955,0,0,1-1.839-.2l-.955-6.682a.955.955,0,0,1,1.89-.269l.426,2.986L7.7,27.11a1,1,0,0,1,1.789,0l1.462,3.9.514-4.624a.955.955,0,0,1,1.9.212ZM24.638,38.9H17.183V36.992h4.591a.955.955,0,0,0,0-1.909H17.183V33.173h4.591a.955.955,0,1,0,0-1.909H17.183V29.355h4.591a.955.955,0,0,0,0-1.909H17.183V25.537h4.591a.955.955,0,0,0,0-1.909H17.183V21.718h7.455Z" transform="translate(0 -15.989)" fill="#707070"/>
      </g>
    </g>
  </g>
</svg>
