<svg id="brands-and-logotypes_1_" data-name="brands-and-logotypes (1)" xmlns="http://www.w3.org/2000/svg" width="27.481" height="27.481" viewBox="0 0 27.481 27.481">
  <path id="Path_10532" data-name="Path 10532" d="M224.113,213.188l4.47-2.574-4.47-2.574Zm0,0" transform="translate(-212.084 -196.873)" fill="red"/>
  <path id="Path_10533" data-name="Path 10533" d="M13.74,0a13.74,13.74,0,1,0,13.74,13.74A13.742,13.742,0,0,0,13.74,0Zm8.586,13.754a22.678,22.678,0,0,1-.353,4.13A2.151,2.151,0,0,1,20.459,19.4a52.224,52.224,0,0,1-6.719.354,50.355,50.355,0,0,1-6.719-.368A2.152,2.152,0,0,1,5.508,17.87a22.578,22.578,0,0,1-.354-4.13,22.663,22.663,0,0,1,.354-4.13A2.2,2.2,0,0,1,7.022,8.083a52.224,52.224,0,0,1,6.719-.354,50.248,50.248,0,0,1,6.719.368A2.152,2.152,0,0,1,21.972,9.61a21.521,21.521,0,0,1,.353,4.144Zm0,0" fill="red"/>
</svg>
